<?xml version="1.0" encoding="UTF-8"?>
<svg xmlns="http://www.w3.org/2000/svg" xmlns:xlink="http://www.w3.org/1999/xlink" width="800pt" height="275pt" viewBox="0 0 800 275" version="1.1">
<g id="surface1">
<rect x="0" y="0" width="800" height="275" style="fill:rgb(91.807556%,91.65802%,91.694641%);fill-opacity:1;stroke:none;"/>
<path style=" stroke:none;fill-rule:evenodd;fill:rgb(20.896912%,27.833557%,31.370544%);fill-opacity:1;" d="M 222.8125 107.769531 L 248.40625 107.769531 L 248.40625 133.71875 L 261.355469 133.71875 C 267.332031 133.71875 273.476562 132.664062 279.140625 130.761719 C 281.921875 129.824219 285.039062 128.523438 287.785156 126.890625 C 284.171875 122.210938 282.328125 116.300781 281.78125 110.480469 C 281.046875 102.558594 282.652344 92.246094 288.0625 86.050781 L 290.75 82.964844 L 293.957031 85.519531 C 302.03125 91.953125 308.820312 100.9375 310.015625 111.183594 C 319.738281 108.351562 331.148438 109.019531 339.71875 113.925781 L 343.230469 115.933594 L 341.378906 119.515625 C 334.136719 133.539062 318.988281 137.886719 304.175781 137.113281 C 282.015625 191.855469 233.769531 217.769531 175.269531 217.769531 C 145.042969 217.769531 117.3125 206.566406 101.523438 179.980469 L 101.265625 179.539062 L 98.964844 174.898438 C 93.628906 163.191406 91.855469 150.367188 93.058594 137.558594 L 93.417969 133.71875 L 115.308594 133.71875 L 115.308594 107.769531 L 140.902344 107.769531 L 140.902344 82.386719 L 192.09375 82.386719 L 192.09375 57 L 222.8125 57 L 222.8125 107.769531 "/>
<path style=" stroke:none;fill-rule:nonzero;fill:rgb(28.074646%,67.99469%,87.272644%);fill-opacity:1;" d="M 305.746094 117.371094 C 307.460938 104.140625 297.480469 93.75 291.285156 88.820312 C 284.152344 96.996094 283.042969 118.433594 294.234375 127.460938 C 287.988281 132.960938 274.828125 137.949219 261.355469 137.949219 L 97.304688 137.949219 C 95.996094 151.898438 98.464844 164.746094 104.105469 175.746094 L 105.972656 179.128906 C 107.152344 181.121094 108.445312 183.039062 109.839844 184.886719 C 116.585938 185.3125 122.804688 185.460938 128.488281 185.339844 C 128.492188 185.339844 128.492188 185.339844 128.492188 185.339844 C 139.671875 185.09375 148.792969 183.785156 155.710938 181.40625 C 156.742188 181.050781 157.859375 181.597656 158.214844 182.613281 C 158.574219 183.632812 158.027344 184.75 157 185.101562 C 156.082031 185.417969 155.121094 185.710938 154.132812 185.996094 C 154.132812 185.996094 154.128906 185.996094 154.128906 185.996094 C 148.683594 187.535156 142.847656 188.574219 135.316406 189.03125 C 135.761719 189.039062 134.851562 189.101562 134.847656 189.101562 C 134.59375 189.117188 134.269531 189.152344 134.011719 189.164062 C 131.046875 189.332031 127.847656 189.367188 124.578125 189.367188 C 121 189.367188 117.476562 189.296875 113.539062 189.101562 L 113.4375 189.164062 C 127.105469 204.402344 148.476562 213.539062 175.269531 213.539062 C 231.964844 213.539062 280.054688 188.617188 301.347656 132.65625 C 316.457031 134.191406 330.980469 130.375 337.585938 117.585938 C 327.0625 111.566406 313.53125 113.488281 305.746094 117.371094 "/>
<path style=" stroke:none;fill-rule:nonzero;fill:rgb(33.796692%,74.443054%,93.370056%);fill-opacity:1;" d="M 305.746094 117.371094 C 307.460938 104.140625 297.480469 93.75 291.285156 88.820312 C 284.152344 96.996094 283.042969 118.433594 294.234375 127.460938 C 287.988281 132.960938 274.828125 137.949219 261.355469 137.949219 L 107.019531 137.949219 C 106.347656 159.3125 114.34375 175.53125 128.488281 185.339844 C 128.492188 185.339844 128.492188 185.339844 128.492188 185.339844 C 139.671875 185.09375 148.792969 183.785156 155.710938 181.40625 C 156.742188 181.050781 157.859375 181.597656 158.214844 182.613281 C 158.574219 183.632812 158.027344 184.75 157 185.101562 C 156.082031 185.417969 155.121094 185.710938 154.132812 185.996094 C 154.132812 185.996094 154.128906 185.996094 154.128906 185.996094 C 148.683594 187.535156 142.347656 188.707031 134.816406 189.164062 C 134.808594 189.164062 134.632812 188.992188 134.632812 188.992188 C 153.925781 198.808594 181.902344 198.773438 213.984375 186.554688 C 249.949219 172.851562 283.417969 146.742188 306.769531 116.882812 C 306.421875 117.046875 306.074219 117.203125 305.746094 117.371094 "/>
<path style=" stroke:none;fill-rule:nonzero;fill:rgb(22.122192%,54.3396%,74.269104%);fill-opacity:1;" d="M 97.613281 154.898438 C 98.632812 162.375 100.835938 169.371094 104.105469 175.746094 L 105.972656 179.128906 C 107.152344 181.121094 108.445312 183.039062 109.839844 184.886719 C 116.585938 185.3125 122.804688 185.460938 128.492188 185.339844 C 139.671875 185.09375 148.792969 183.785156 155.710938 181.40625 C 156.742188 181.050781 157.859375 181.597656 158.214844 182.613281 C 158.574219 183.632812 158.027344 184.75 157 185.101562 C 156.082031 185.417969 155.121094 185.710938 154.132812 185.996094 C 154.132812 185.996094 154.128906 185.996094 154.128906 185.996094 C 148.683594 187.535156 142.378906 188.640625 134.847656 189.101562 C 134.59375 189.117188 134.140625 189.121094 133.878906 189.132812 C 130.917969 189.296875 127.75 189.398438 124.480469 189.398438 C 120.902344 189.398438 117.242188 189.332031 113.304688 189.132812 C 126.972656 204.371094 148.476562 213.539062 175.269531 213.539062 C 223.808594 213.539062 266.03125 195.269531 290.542969 154.898438 L 97.613281 154.898438 "/>
<path style=" stroke:none;fill-rule:nonzero;fill:rgb(24.938965%,61.201477%,79.437256%);fill-opacity:1;" d="M 108.496094 154.898438 C 111.398438 168.023438 118.371094 178.320312 128.492188 185.339844 C 139.671875 185.09375 148.792969 183.785156 155.710938 181.40625 C 156.742188 181.050781 157.859375 181.597656 158.214844 182.613281 C 158.574219 183.632812 158.027344 184.75 157 185.101562 C 156.082031 185.417969 155.121094 185.710938 154.132812 185.996094 C 154.132812 185.996094 154.128906 185.996094 154.128906 185.996094 C 148.683594 187.535156 142.246094 188.640625 134.714844 189.101562 C 154.007812 198.914062 181.90625 198.773438 213.984375 186.554688 C 233.386719 179.160156 252.058594 168.15625 268.816406 154.898438 L 108.496094 154.898438 "/>
<path style=" stroke:none;fill-rule:evenodd;fill:rgb(27.284241%,69.000244%,84.199524%);fill-opacity:1;" d="M 119.574219 112 L 141.753906 112 L 141.753906 134 L 119.574219 134 Z M 121.417969 113.835938 L 123.171875 113.835938 L 123.171875 132.171875 L 121.417969 132.171875 Z M 124.710938 113.835938 L 126.53125 113.835938 L 126.53125 132.171875 L 124.710938 132.171875 Z M 128.070312 113.835938 L 129.894531 113.835938 L 129.894531 132.171875 L 128.070312 132.171875 Z M 131.433594 113.835938 L 133.257812 113.835938 L 133.257812 132.171875 L 131.433594 132.171875 Z M 134.792969 113.835938 L 136.613281 113.835938 L 136.613281 132.171875 L 134.792969 132.171875 Z M 138.15625 113.835938 L 139.910156 113.835938 L 139.910156 132.171875 L 138.15625 132.171875 L 138.15625 113.835938 "/>
<path style=" stroke:none;fill-rule:evenodd;fill:rgb(27.284241%,69.000244%,84.199524%);fill-opacity:1;" d="M 145.167969 86.613281 L 167.351562 86.613281 L 167.351562 108.617188 L 145.167969 108.617188 Z M 147.015625 88.449219 L 148.765625 88.449219 L 148.765625 106.78125 L 147.015625 106.78125 Z M 150.3125 88.449219 L 152.132812 88.449219 L 152.132812 106.78125 L 150.3125 106.78125 Z M 153.664062 88.449219 L 155.488281 88.449219 L 155.488281 106.78125 L 153.664062 106.78125 Z M 157.03125 88.449219 L 158.851562 88.449219 L 158.851562 106.78125 L 157.03125 106.78125 Z M 160.394531 88.449219 L 162.214844 88.449219 L 162.214844 106.78125 L 160.394531 106.78125 Z M 163.753906 88.449219 L 165.507812 88.449219 L 165.507812 106.78125 L 163.753906 106.78125 L 163.753906 88.449219 "/>
<path style=" stroke:none;fill-rule:evenodd;fill:rgb(34.408569%,78.594971%,94.485474%);fill-opacity:1;" d="M 145.167969 112 L 167.351562 112 L 167.351562 134 L 145.167969 134 Z M 147.015625 113.835938 L 148.765625 113.835938 L 148.765625 132.171875 L 147.015625 132.171875 Z M 150.3125 113.835938 L 152.132812 113.835938 L 152.132812 132.171875 L 150.3125 132.171875 Z M 153.664062 113.835938 L 155.488281 113.835938 L 155.488281 132.171875 L 153.664062 132.171875 Z M 157.03125 113.835938 L 158.851562 113.835938 L 158.851562 132.171875 L 157.03125 132.171875 Z M 160.394531 113.835938 L 162.214844 113.835938 L 162.214844 132.171875 L 160.394531 132.171875 Z M 163.753906 113.835938 L 165.507812 113.835938 L 165.507812 132.171875 L 163.753906 132.171875 L 163.753906 113.835938 "/>
<path style=" stroke:none;fill-rule:evenodd;fill:rgb(27.284241%,69.000244%,84.199524%);fill-opacity:1;" d="M 170.765625 112 L 192.953125 112 L 192.953125 134 L 170.765625 134 Z M 172.613281 113.835938 L 174.363281 113.835938 L 174.363281 132.171875 L 172.613281 132.171875 Z M 175.90625 113.835938 L 177.726562 113.835938 L 177.726562 132.171875 L 175.90625 132.171875 Z M 179.269531 113.835938 L 181.089844 113.835938 L 181.089844 132.171875 L 179.269531 132.171875 Z M 182.628906 113.835938 L 184.449219 113.835938 L 184.449219 132.171875 L 182.628906 132.171875 Z M 185.988281 113.835938 L 187.8125 113.835938 L 187.8125 132.171875 L 185.988281 132.171875 Z M 189.351562 113.835938 L 191.101562 113.835938 L 191.101562 132.171875 L 189.351562 132.171875 L 189.351562 113.835938 "/>
<path style=" stroke:none;fill-rule:evenodd;fill:rgb(34.408569%,78.594971%,94.485474%);fill-opacity:1;" d="M 170.765625 86.613281 L 192.953125 86.613281 L 192.953125 108.617188 L 170.765625 108.617188 Z M 172.613281 88.449219 L 174.363281 88.449219 L 174.363281 106.78125 L 172.613281 106.78125 Z M 175.90625 88.449219 L 177.726562 88.449219 L 177.726562 106.78125 L 175.90625 106.78125 Z M 179.269531 88.449219 L 181.089844 88.449219 L 181.089844 106.78125 L 179.269531 106.78125 Z M 182.628906 88.449219 L 184.449219 88.449219 L 184.449219 106.78125 L 182.628906 106.78125 Z M 185.988281 88.449219 L 187.8125 88.449219 L 187.8125 106.78125 L 185.988281 106.78125 Z M 189.351562 88.449219 L 191.101562 88.449219 L 191.101562 106.78125 L 189.351562 106.78125 L 189.351562 88.449219 "/>
<path style=" stroke:none;fill-rule:evenodd;fill:rgb(34.408569%,78.594971%,94.485474%);fill-opacity:1;" d="M 196.363281 112 L 218.550781 112 L 218.550781 134 L 196.363281 134 Z M 198.210938 113.835938 L 199.964844 113.835938 L 199.964844 132.171875 L 198.210938 132.171875 Z M 201.503906 113.835938 L 203.324219 113.835938 L 203.324219 132.171875 L 201.503906 132.171875 Z M 204.867188 113.835938 L 206.6875 113.835938 L 206.6875 132.171875 L 204.867188 132.171875 Z M 208.226562 113.835938 L 210.046875 113.835938 L 210.046875 132.171875 L 208.226562 132.171875 Z M 211.589844 113.835938 L 213.410156 113.835938 L 213.410156 132.171875 L 211.589844 132.171875 Z M 214.949219 113.835938 L 216.703125 113.835938 L 216.703125 132.171875 L 214.949219 132.171875 L 214.949219 113.835938 "/>
<path style=" stroke:none;fill-rule:evenodd;fill:rgb(27.284241%,69.000244%,84.199524%);fill-opacity:1;" d="M 196.363281 86.613281 L 218.550781 86.613281 L 218.550781 108.617188 L 196.363281 108.617188 Z M 198.210938 88.449219 L 199.964844 88.449219 L 199.964844 106.78125 L 198.210938 106.78125 Z M 201.503906 88.449219 L 203.324219 88.449219 L 203.324219 106.78125 L 201.503906 106.78125 Z M 204.867188 88.449219 L 206.6875 88.449219 L 206.6875 106.78125 L 204.867188 106.78125 Z M 208.226562 88.449219 L 210.046875 88.449219 L 210.046875 106.78125 L 208.226562 106.78125 Z M 211.589844 88.449219 L 213.410156 88.449219 L 213.410156 106.78125 L 211.589844 106.78125 Z M 214.949219 88.449219 L 216.703125 88.449219 L 216.703125 106.78125 L 214.949219 106.78125 L 214.949219 88.449219 "/>
<path style=" stroke:none;fill-rule:evenodd;fill:rgb(34.408569%,78.594971%,94.485474%);fill-opacity:1;" d="M 196.363281 61.230469 L 218.550781 61.230469 L 218.550781 83.230469 L 196.363281 83.230469 Z M 198.210938 63.0625 L 199.964844 63.0625 L 199.964844 81.398438 L 198.210938 81.398438 Z M 201.503906 63.0625 L 203.324219 63.0625 L 203.324219 81.398438 L 201.503906 81.398438 Z M 204.867188 63.0625 L 206.6875 63.0625 L 206.6875 81.398438 L 204.867188 81.398438 Z M 208.226562 63.0625 L 210.046875 63.0625 L 210.046875 81.398438 L 208.226562 81.398438 Z M 211.589844 63.0625 L 213.410156 63.0625 L 213.410156 81.398438 L 211.589844 81.398438 Z M 214.949219 63.0625 L 216.703125 63.0625 L 216.703125 81.398438 L 214.949219 81.398438 L 214.949219 63.0625 "/>
<path style=" stroke:none;fill-rule:evenodd;fill:rgb(27.284241%,69.000244%,84.199524%);fill-opacity:1;" d="M 221.960938 112 L 244.144531 112 L 244.144531 134 L 221.960938 134 Z M 223.808594 113.835938 L 225.558594 113.835938 L 225.558594 132.171875 L 223.808594 132.171875 Z M 227.101562 113.835938 L 228.917969 113.835938 L 228.917969 132.171875 L 227.101562 132.171875 Z M 230.460938 113.835938 L 232.28125 113.835938 L 232.28125 132.171875 L 230.460938 132.171875 Z M 233.820312 113.835938 L 235.640625 113.835938 L 235.640625 132.171875 L 233.820312 132.171875 Z M 237.183594 113.835938 L 239.003906 113.835938 L 239.003906 132.171875 L 237.183594 132.171875 Z M 240.546875 113.835938 L 242.296875 113.835938 L 242.296875 132.171875 L 240.546875 132.171875 L 240.546875 113.835938 "/>
<path style=" stroke:none;fill-rule:evenodd;fill:rgb(84.448242%,94.798279%,95.042419%);fill-opacity:1;" d="M 165.964844 169.671875 C 169.347656 169.671875 172.085938 172.390625 172.085938 175.738281 C 172.085938 179.09375 169.347656 181.808594 165.964844 181.808594 C 162.582031 181.808594 159.847656 179.09375 159.847656 175.738281 C 159.847656 172.390625 162.582031 169.671875 165.964844 169.671875 "/>
<path style=" stroke:none;fill-rule:evenodd;fill:rgb(20.896912%,27.833557%,31.370544%);fill-opacity:1;" d="M 165.964844 171.390625 C 166.523438 171.390625 167.058594 171.5 167.550781 171.6875 C 167.019531 171.992188 166.65625 172.566406 166.65625 173.222656 C 166.65625 174.203125 167.457031 174.996094 168.445312 174.996094 C 169.121094 174.996094 169.710938 174.625 170.011719 174.070312 C 170.230469 174.585938 170.347656 175.148438 170.347656 175.738281 C 170.347656 178.140625 168.386719 180.089844 165.964844 180.089844 C 163.546875 180.089844 161.582031 178.140625 161.582031 175.738281 C 161.582031 173.339844 163.546875 171.390625 165.964844 171.390625 "/>
<path style=" stroke:none;fill-rule:evenodd;fill:rgb(20.896912%,27.833557%,31.370544%);fill-opacity:1;" d="M 57.710938 157.09375 L 342.414062 157.09375 C 336.210938 155.53125 322.800781 153.429688 325.011719 145.371094 C 313.738281 158.308594 286.554688 154.445312 279.695312 148.066406 C 272.058594 159.058594 227.582031 154.878906 224.480469 146.316406 C 214.902344 157.464844 185.226562 157.464844 175.644531 146.316406 C 172.542969 154.878906 128.070312 159.058594 120.429688 148.066406 C 113.566406 154.445312 86.386719 158.308594 75.113281 145.371094 C 77.324219 153.429688 63.910156 155.53125 57.710938 157.09375 "/>
<path style=" stroke:none;fill-rule:nonzero;fill:rgb(75.973511%,88.130188%,88.061523%);fill-opacity:1;" d="M 182.234375 213.410156 C 167.078125 206.273438 158.757812 196.582031 154.128906 185.996094 C 148.496094 187.589844 141.730469 188.605469 133.867188 189.042969 C 130.902344 189.210938 127.789062 189.292969 124.519531 189.292969 C 120.75 189.292969 116.777344 189.179688 112.609375 188.964844 C 126.507812 202.738281 143.605469 213.347656 175.269531 213.539062 C 177.601562 213.539062 179.925781 213.496094 182.234375 213.410156 "/>
<path style=" stroke:none;fill-rule:nonzero;fill:rgb(84.448242%,94.798279%,95.042419%);fill-opacity:1;" d="M 159.757812 195.761719 C 157.660156 192.9375 155.628906 189.390625 154.132812 185.996094 C 148.496094 187.589844 141.730469 188.605469 133.867188 189.042969 C 139.265625 191.953125 146.996094 194.644531 159.757812 195.761719 "/>
<path style=" stroke:none;fill-rule:evenodd;fill:rgb(20.896912%,27.833557%,31.370544%);fill-opacity:1;" d="M 412.070312 127.96875 L 412.070312 103.257812 C 412.070312 100.011719 414.113281 97.398438 417.503906 97.398438 L 418.441406 97.398438 C 421.832031 97.398438 423.871094 100.011719 423.871094 103.257812 L 423.871094 155.28125 C 423.871094 167.96875 417.550781 178.0625 406.539062 184.496094 C 401.429688 187.46875 395.785156 189 389.867188 189 L 387.527344 189 C 374.734375 189 364.566406 182.730469 358.074219 171.8125 C 355.058594 166.746094 353.527344 161.15625 353.527344 155.28125 L 353.527344 152.960938 C 353.527344 140.273438 359.847656 130.183594 370.855469 123.742188 C 375.964844 120.75 381.601562 119.230469 387.527344 119.230469 L 389.867188 119.230469 C 398.523438 119.230469 405.875 122.558594 412.070312 127.96875 Z M 365.324219 154.121094 C 365.324219 163.285156 369.804688 170.171875 377.90625 174.570312 C 381.175781 176.34375 384.730469 177.296875 388.46875 177.296875 C 397.539062 177.296875 404.265625 173.054688 408.90625 165.429688 C 411.0625 161.886719 412.070312 158.007812 412.070312 153.882812 C 412.070312 145.9375 408.277344 139.738281 401.820312 135.136719 C 397.910156 132.339844 393.503906 130.941406 388.699219 130.941406 C 378.8125 130.941406 371.695312 135.894531 367.425781 144.695312 C 365.984375 147.667969 365.324219 150.824219 365.324219 154.121094 Z M 464.808594 119.230469 L 466.445312 119.230469 C 480.117188 119.230469 490.515625 125.808594 497.105469 137.644531 C 499.738281 142.378906 501.148438 147.546875 501.148438 152.960938 L 501.148438 155.28125 C 501.148438 167.96875 494.839844 178.078125 483.8125 184.496094 C 478.703125 187.464844 473.0625 189 467.144531 189 L 464.808594 189 C 452.015625 189 441.847656 182.730469 435.355469 171.8125 C 432.339844 166.746094 430.804688 161.15625 430.804688 155.28125 L 430.804688 152.960938 C 430.804688 140.273438 437.152344 130.214844 448.125 123.742188 C 453.230469 120.734375 458.878906 119.230469 464.808594 119.230469 Z M 442.601562 154.121094 C 442.601562 163.015625 447.007812 169.558594 454.585938 174.15625 C 458.140625 176.320312 462.058594 177.296875 466.21875 177.296875 C 475.078125 177.296875 481.628906 172.84375 486.191406 165.421875 C 488.363281 161.886719 489.347656 158 489.347656 153.882812 C 489.347656 145.605469 485.332031 139.292969 478.460938 134.710938 C 474.699219 132.199219 470.511719 130.941406 465.976562 130.941406 C 456.089844 130.941406 448.976562 135.894531 444.707031 144.695312 C 443.261719 147.667969 442.601562 150.824219 442.601562 154.121094 Z M 550.203125 131.875 C 548.425781 131.050781 545.089844 130.773438 543.164062 130.703125 C 533.304688 130.335938 526.171875 135.839844 521.984375 144.464844 C 520.539062 147.4375 519.886719 150.589844 519.886719 153.882812 C 519.886719 163.90625 525.1875 170.925781 534.214844 175.203125 C 537.507812 176.761719 541.761719 177.058594 545.363281 177.058594 C 548.53125 177.058594 553.011719 175.136719 555.820312 173.8125 L 556.308594 173.585938 L 558.488281 173.585938 L 558.730469 173.628906 C 561.414062 174.1875 563.4375 175.871094 563.4375 178.734375 L 563.4375 179.894531 C 563.4375 187.015625 550.308594 188.652344 545.296875 188.996094 C 527.617188 190.210938 514.394531 180.582031 509.351562 163.855469 C 508.476562 160.949219 508.082031 158.066406 508.082031 155.042969 L 508.082031 152.722656 C 508.082031 140.035156 514.429688 129.980469 525.40625 123.515625 C 530.515625 120.511719 536.15625 119 542.085938 119 L 544.425781 119 C 550.710938 119 556.507812 120.769531 561.699219 124.289062 L 562.128906 124.582031 L 562.394531 125.019531 C 562.953125 125.941406 563.4375 127.011719 563.4375 128.109375 L 563.4375 129.265625 C 563.4375 132.253906 561.183594 133.859375 558.464844 134.378906 L 558.238281 134.414062 L 557.542969 134.414062 C 555.78125 134.414062 551.777344 132.609375 550.203125 131.875 Z M 588.484375 139.800781 C 593.066406 135.25 597.667969 130.707031 602.320312 126.230469 C 603.613281 124.980469 608.523438 119.695312 610.453125 119.695312 L 612.570312 119.695312 L 612.808594 119.746094 C 615.503906 120.300781 617.519531 121.988281 617.519531 124.855469 L 617.519531 126.019531 C 617.519531 127.972656 615.207031 130.25 613.933594 131.589844 C 611.222656 134.4375 608.367188 137.191406 605.59375 139.984375 L 591.339844 154.335938 C 597.472656 160.4375 603.605469 166.546875 609.695312 172.695312 C 611.378906 174.394531 613.066406 176.097656 614.726562 177.824219 C 615.308594 178.433594 616.179688 179.195312 616.667969 180.039062 C 617.195312 180.839844 617.519531 181.734375 617.519531 182.691406 L 617.519531 183.894531 L 617.449219 184.175781 C 616.785156 186.847656 615.078125 189 612.09375 189 L 611.15625 189 C 609.203125 189 607 186.808594 605.664062 185.558594 C 602.90625 182.980469 600.242188 180.269531 597.539062 177.640625 L 588.484375 168.820312 L 588.484375 182.917969 C 588.484375 186.160156 586.433594 188.769531 583.046875 188.769531 L 582.113281 188.769531 C 578.730469 188.769531 576.683594 186.160156 576.683594 182.917969 L 576.683594 103.484375 C 576.683594 100.234375 578.730469 97.636719 582.113281 97.636719 L 583.046875 97.636719 C 586.433594 97.636719 588.484375 100.234375 588.484375 103.484375 Z M 735.558594 119.695312 L 736.730469 119.695312 C 740.269531 119.695312 742.632812 122.0625 742.632812 125.550781 C 742.632812 130.398438 737.964844 131.636719 733.925781 131.636719 C 728.621094 131.636719 723.5625 134.816406 719.90625 138.382812 C 715.351562 142.84375 713.359375 148.542969 713.359375 154.816406 L 713.359375 183.144531 C 713.359375 186.394531 711.3125 189 707.925781 189 L 706.996094 189 C 703.601562 189 701.558594 186.394531 701.558594 183.144531 L 701.558594 153.1875 C 701.558594 141.683594 707.203125 132.296875 716.617188 125.707031 C 722.242188 121.769531 728.675781 119.695312 735.558594 119.695312 Z M 651.6875 175.839844 C 655.980469 177.328125 660.878906 177.117188 665.28125 176.355469 C 667.535156 175.40625 673.300781 172.914062 675.417969 173.273438 L 675.753906 173.332031 L 676.054688 173.480469 C 677.347656 174.105469 678.585938 174.984375 679.246094 176.289062 C 680.792969 179.351562 680.046875 182.429688 677.015625 184.164062 L 676.007812 184.746094 C 664.8125 191.152344 652.90625 190.265625 641.746094 184.28125 C 636.414062 181.421875 632.335938 177.171875 629.320312 171.996094 L 628.617188 170.789062 C 621.433594 158.449219 622.402344 145.464844 630.507812 133.730469 C 633.304688 129.675781 636.960938 126.539062 641.234375 124.089844 L 642.851562 123.160156 C 653.394531 117.128906 664.691406 117.539062 675.519531 122.835938 C 681.339844 125.683594 686.054688 129.933594 689.304688 135.511719 L 689.890625 136.515625 C 692.25 140.578125 689.191406 144.109375 686.035156 146.527344 C 682.371094 149.328125 678.671875 152.703125 675.160156 155.710938 C 667.328125 162.414062 659.515625 169.132812 651.6875 175.839844 Z M 641.550781 168.78125 C 650.3125 161.335938 659.070312 153.882812 667.804688 146.402344 C 670.785156 143.851562 674.058594 141.207031 677.023438 138.519531 C 674.644531 135.554688 670.675781 133.410156 667.304688 132.136719 C 660.496094 129.5625 653.789062 130.429688 647.546875 134 C 639.375 138.675781 635.890625 146.128906 636.195312 155.402344 C 636.320312 159.050781 637.308594 162.566406 639.265625 165.675781 C 639.953125 166.773438 640.722656 167.800781 641.550781 168.78125 "/>
</g>
</svg>
